<svg data-v-423bf9ae="" xmlns="http://www.w3.org/2000/svg" viewBox="0 0 341.10905158876415 60" class="font"><!----><!----><!----><g data-v-423bf9ae="" id="2d2aa498-5043-4867-889f-a53ec490e0a9" fill="white" transform="matrix(5.639098067841383,0,0,5.639098067841383,-0.7894735409271902,1.1278203903333193)"><path d="M4.06 10.26L4.06 9.66L3.08 8.96L3.08 3.16L4.06 2.46L4.06 1.86L0.14 1.86L0.14 2.46L1.12 3.16L1.12 8.96L0.14 9.66L0.14 10.26ZM12.18 10.26L12.18 9.66L11.20 8.96L11.20 6.06C11.20 4.52 10.00 3.54 8.22 3.54C7.20 3.54 6.10 3.71 5.10 3.99L4.86 4.06L5.22 5.36L5.22 10.26L7.10 10.26L7.10 5.26C7.41 5.18 7.81 5.12 8.22 5.12C8.90 5.12 9.34 5.49 9.34 6.06L9.34 10.26ZM17.82 5.32L17.82 3.72L15.58 3.72L15.58 2.32C15.58 1.82 15.93 1.47 16.49 1.40L17.22 2.41L17.82 2.41L17.82 0C17.50-0.11 17.08-0.20 16.70-0.20C14.92-0.20 13.72 0.78 13.72 2.32L13.72 3.72L12.32 3.72L12.32 5.32L13.72 5.32L13.72 10.26L15.58 10.26L15.58 5.32ZM25.28 7C25.28 4.96 24.05 3.54 21.92 3.54C19.81 3.54 18.56 4.96 18.56 7C18.56 9.03 19.81 10.44 21.92 10.44C24.05 10.44 25.28 9.03 25.28 7ZM23.32 7C23.32 8.22 22.82 8.86 21.92 8.86C21.04 8.86 20.52 8.22 20.52 7C20.52 5.77 21.04 5.12 21.92 5.12C22.82 5.12 23.32 5.77 23.32 7ZM32.94 3.44L32.94 1.86L25.94 1.86L25.94 4.40L26.56 4.40L27.23 3.44L28.46 3.44L28.46 10.26L30.42 10.26L30.42 3.44ZM38.92 6.13L38.92 3.84C38.44 3.68 37.72 3.54 37.16 3.54C36.13 3.54 35.04 3.71 34.03 3.99L33.80 4.06L34.16 5.36L34.16 10.26L36.04 10.26L36.04 5.26C36.34 5.18 36.75 5.12 37.16 5.12C37.30 5.12 37.45 5.14 37.62 5.15L38.32 6.13ZM46.82 10.26L46.82 8.72C46.62 8.79 46.40 8.86 46.16 8.86C45.84 8.86 45.70 8.74 45.70 8.39L45.70 6.06C45.70 4.45 44.41 3.54 42.48 3.54C41.79 3.54 41.03 3.70 40.28 3.88L40.28 6.13L40.88 6.13L41.55 5.19C41.89 5.15 42.18 5.12 42.48 5.12C43.37 5.12 43.82 5.50 43.82 6.06L43.82 6.24L42.34 6.24C40.61 6.24 39.62 7.15 39.62 8.34C39.62 9.55 40.61 10.44 42.34 10.44C43.04 10.44 43.71 10.22 44.24 9.91C44.53 10.26 45.05 10.44 45.70 10.44C46.07 10.44 46.52 10.36 46.82 10.26ZM43.82 8.64C43.37 8.90 42.83 9.04 42.34 9.04C41.76 9.04 41.50 8.79 41.50 8.34C41.50 7.91 41.76 7.64 42.34 7.64L43.82 7.64ZM52.70 10.15L52.70 8.57C52.12 8.75 51.55 8.86 50.92 8.86C49.85 8.86 49.24 8.32 49.24 7C49.24 5.67 49.85 5.12 50.92 5.12C51.07 5.12 51.23 5.14 51.38 5.15L52.09 6.13L52.70 6.13L52.70 3.84C52.22 3.68 51.48 3.54 50.92 3.54C48.59 3.54 47.28 4.89 47.28 7C47.28 9.10 48.59 10.44 50.92 10.44C51.48 10.44 52.22 10.30 52.70 10.15ZM60.63 10.26L57.81 7L60.63 3.72L56.80 3.72L56.80 4.34L57.50 4.84L56.06 6.54L56.06 0L54.19 0L54.19 10.26L56.06 10.26L56.06 9.02L56.74 8.23L58.44 10.26Z"></path></g><!----><!----></svg>